<svg width="24" height="24" viewBox="0 0 24 24" fill="none" xmlns="http://www.w3.org/2000/svg">
<path fill-rule="evenodd" clip-rule="evenodd" d="M9.63285 3.25H13.6172C15.3975 3.24998 16.8076 3.24997 17.9112 3.40314C19.047 3.56076 19.9663 3.89288 20.6913 4.64124C21.3482 5.31932 21.6748 6.16313 21.8438 7.19112C21.9671 7.94158 22.0122 8.82957 22.0289 9.87437C22.0356 9.91522 22.0391 9.95719 22.0391 10C22.0391 10.0353 22.0367 10.07 22.0321 10.104C22.0356 10.3904 22.0373 10.6882 22.0382 10.9978C22.0393 11.412 21.715 11.7488 21.3137 11.75C20.9125 11.7512 20.5862 11.4164 20.585 11.0022C20.5848 10.9168 20.5845 10.8328 20.5841 10.75H2.66599C2.66415 11.1384 2.66406 11.5541 2.66406 12C2.66406 13.9068 2.66561 15.2615 2.79945 16.2892C2.93049 17.2952 3.17623 17.8749 3.58622 18.2981C3.9962 18.7213 4.55774 18.975 5.53238 19.1102C6.52793 19.2484 7.84027 19.25 9.6875 19.25H11.1406C11.5419 19.25 11.8672 19.5858 11.8672 20C11.8672 20.4142 11.5419 20.75 11.1406 20.75H9.63285C7.85252 20.75 6.44237 20.75 5.33876 20.5969C4.20298 20.4392 3.28368 20.1071 2.5587 19.3588C1.83373 18.6104 1.51199 17.6614 1.35929 16.489C1.21091 15.3498 1.21092 13.8942 1.21094 12.0564V11.9436C1.21093 11.2818 1.21093 10.6696 1.21785 10.1039C1.21329 10.0699 1.21094 10.0352 1.21094 10C1.21094 9.95716 1.21442 9.91517 1.2211 9.87429C1.23578 8.96711 1.27165 8.18385 1.35929 7.51098C1.51199 6.33856 1.83373 5.38961 2.5587 4.64124C3.28368 3.89288 4.20298 3.56076 5.33876 3.40314C6.44237 3.24997 7.85252 3.24998 9.63285 3.25ZM2.68932 9.25H20.5606C20.5374 8.53519 20.4936 7.9438 20.4111 7.44205C20.2728 6.60017 20.0368 6.08692 19.6638 5.7019C19.2538 5.27869 18.6923 5.02502 17.7176 4.88976C16.7221 4.75159 15.4097 4.75 13.5625 4.75H9.6875C7.84027 4.75 6.52793 4.75159 5.53238 4.88976C4.55774 5.02502 3.9962 5.27869 3.58622 5.7019C3.17623 6.12511 2.93049 6.70476 2.79945 7.71085C2.74143 8.15634 2.70827 8.66327 2.68932 9.25ZM15.0156 13.25C15.4169 13.25 15.7422 13.5858 15.7422 14V18.1893L16.4394 17.4697C16.7231 17.1768 17.1831 17.1768 17.4669 17.4697C17.7506 17.7626 17.7506 18.2374 17.4669 18.5303L15.5294 20.5303C15.2456 20.8232 14.7856 20.8232 14.5019 20.5303L12.5644 18.5303C12.2806 18.2374 12.2806 17.7626 12.5644 17.4697C12.8481 17.1768 13.3081 17.1768 13.5919 17.4697L14.2891 18.1893V14C14.2891 13.5858 14.6144 13.25 15.0156 13.25ZM18.8612 13.4697C19.145 13.1768 19.605 13.1768 19.8888 13.4697L21.8263 15.4697C22.11 15.7626 22.11 16.2374 21.8263 16.5303C21.5425 16.8232 21.0825 16.8232 20.7987 16.5303L20.1016 15.8107V20C20.1016 20.4142 19.7763 20.75 19.375 20.75C18.9737 20.75 18.6484 20.4142 18.6484 20V15.8107L17.9513 16.5303C17.6675 16.8232 17.2075 16.8232 16.9237 16.5303C16.64 16.2374 16.64 15.7626 16.9237 15.4697L18.8612 13.4697ZM5.08594 16C5.08594 15.5858 5.41123 15.25 5.8125 15.25H9.6875C10.0888 15.25 10.4141 15.5858 10.4141 16C10.4141 16.4142 10.0888 16.75 9.6875 16.75H5.8125C5.41123 16.75 5.08594 16.4142 5.08594 16Z" fill="white"/>
</svg>
