<svg width="24" height="24" viewBox="0 0 24 24" fill="none" xmlns="http://www.w3.org/2000/svg">
<path d="M0 16.2598C0.000278165 12.1624 11.3828 12.6172 11.3828 12.6172C11.3828 12.6172 11.8377 23.9998 7.74023 24C3.65142 24 3.86917 20.1463 3.87012 20.1299C3.8499 20.131 0 20.3466 0 16.2598ZM12.6172 12.6172C12.6172 12.6172 23.9998 12.1623 24 16.2598C24 20.3487 20.1462 20.1308 20.1299 20.1299C20.131 20.15 20.3466 24 16.2598 24C12.1624 23.9997 12.6172 12.6172 12.6172 12.6172ZM7.74023 0C11.8376 0.000280876 11.3828 11.3828 11.3828 11.3828C11.3828 11.3828 0.000227253 11.8377 0 7.74023C-2.10289e-07 3.65133 3.85384 3.86918 3.87012 3.87012C3.86896 3.84992 3.65342 -2.52218e-07 7.74023 0ZM16.2598 0C20.3486 4.20568e-08 20.1308 3.85366 20.1299 3.87012C20.1501 3.86896 24 3.65344 24 7.74023C23.9997 11.8376 12.6172 11.3828 12.6172 11.3828C12.6172 11.3828 12.1623 0.000227306 16.2598 0Z" fill="#3BB44B"/>
</svg>
